<?xml version="1.0" standalone="no"?><!DOCTYPE svg PUBLIC "-//W3C//DTD SVG 1.1//EN" "http://www.w3.org/Graphics/SVG/1.1/DTD/svg11.dtd"><svg t="1731744835517" class="icon" viewBox="0 0 1024 1024" version="1.1" xmlns="http://www.w3.org/2000/svg" p-id="1035" xmlns:xlink="http://www.w3.org/1999/xlink" width="200" height="200"><path d="M238.63842497 654.15949456c-8.84119111-8.84243266-23.17537068-8.84243266-32.01656179 0-8.84119111 8.83994958-8.84119111 23.17537068 0 32.01531904L509.08646847 988.6394189c4.42121633 4.42121633 10.21474801 6.6318245 16.00828091 6.6318245s11.58830611-2.21060816 16.00828089-6.6318245c8.84119111-8.83994958 8.84119111-23.17537068 0-32.01531904L238.63842497 654.15949456z" p-id="1036"></path><path d="M991.24371395 475.53365789L105.29155755 475.53365789l435.81147272-435.81147273c8.84119111-8.84119111 8.84119111-23.17537068 0-32.0165618-8.83870683-8.84119111-23.17412913-8.84119111-32.01531904 0L34.627851 482.16424084c-8.84119111 8.84119111-8.84119111 23.17537068 0 32.01656179 4.42121633 4.42121633 10.21474801 6.63058295 16.00828089 6.63058296 1.43316916 0 2.86633953-0.13785255 4.2783964-0.4073475 1.3685895 0.25831865 2.77443743 0.40734751 4.21754259 0.4073475l932.11164307 0c12.50235491 0 22.63886385-10.13526619 22.63886385-22.63886385S1003.74731162 475.53365789 991.24371395 475.53365789z" p-id="1037"></path></svg>