<?xml version="1.0" standalone="no"?><!DOCTYPE svg PUBLIC "-//W3C//DTD SVG 1.1//EN" "http://www.w3.org/Graphics/SVG/1.1/DTD/svg11.dtd"><svg t="1731746089002" class="icon" viewBox="0 0 1037 1024" version="1.1" xmlns="http://www.w3.org/2000/svg" p-id="1120" xmlns:xlink="http://www.w3.org/1999/xlink" width="202.5390625" height="200"><path d="M26.777153 796.168188a696.44401 696.44401 0 0 0 984.627739 0Q708.811977 334.353764 538.183194 30.800236a20.413014 20.413014 0 0 0-27.737684-7.684899 19.092172 19.092172 0 0 0-7.684899 7.444746Q326.128001 335.314376 26.777153 796.168188z m-17.170947-11.167119q298.990618-460.613659 475.503152-764.647493A42.14687 42.14687 0 0 1 499.99885 5.22393a40.705952 40.705952 0 0 1 55.475368 15.609952q170.748859 302.833068 472.861468 764.167187a20.413014 20.413014 0 0 1-2.641685 25.576306 716.736948 716.736948 0 0 1-1013.566188 0 20.533091 20.533091 0 0 1-2.521607-25.576306z" fill="#3E3232" p-id="1121"></path><path d="M26.777153 796.168188Q326.007924 335.314376 502.760611 30.560083a19.092172 19.092172 0 0 1 7.684899-7.444746 20.413014 20.413014 0 0 1 27.737684 7.684899Q708.6919 334.353764 1011.404892 796.168188a696.44401 696.44401 0 0 1-984.627739 0z" fill="#F998B1" p-id="1122"></path><path d="M515.848955 288.48452a18.251636 18.251636 0 0 1 18.251636 18.251636v18.251636a18.251636 18.251636 0 0 1-36.022966 0v-18.251636a18.251636 18.251636 0 0 1 17.77133-18.251636z m-75.888382 143.491482a18.251636 18.251636 0 0 1 14.048957 21.613779l-3.962526 17.4111a18.407736 18.407736 0 1 1-36.022966-7.564822l3.722373-17.77133a18.251636 18.251636 0 0 1 22.214162-13.688727z m174.111003 60.878812a18.371713 18.371713 0 0 1 20.653167 15.489876l2.521608 18.131559a18.251636 18.251636 0 0 1-36.022966 5.043215l-2.521608-18.011483a18.251636 18.251636 0 0 1 15.369799-20.653167z m-78.04976 224.303002a18.13156 18.13156 0 0 1 18.251636 18.011483v18.251636a18.251636 18.251636 0 0 1-36.022966 0.600383v-18.251636a18.13156 18.13156 0 0 1 17.77133-18.611866z m214.696878-79.610755a18.251636 18.251636 0 0 1 24.015311 9.966354l6.844363 16.930794a18.251636 18.251636 0 1 1-33.861588 13.688727l-7.564823-16.930794a18.13156 18.13156 0 0 1 10.326584-23.655081z m-392.530253-21.853933a18.251636 18.251636 0 0 1 14.048956 21.61378l-4.322756 17.77133a18.407736 18.407736 0 1 1-36.022966-7.564823l3.722374-17.77133a18.251636 18.251636 0 0 1 22.574392-14.048957z" fill="#473C3C" p-id="1123"></path><path d="M84.894205 708.99261l-58.597358 90.297569a696.44401 696.44401 0 0 0 984.627738 0L951.606768 708.512304a632.68336 632.68336 0 0 1-866.712563 0z m13.92888-14.889492a612.390423 612.390423 0 0 0 838.854803 0l17.77133-16.810718 12.848191 20.172861 60.038277 90.657798 9.125818 13.92888-12.007656 12.007656a716.496795 716.496795 0 0 1-1013.446111 0l-12.007656-12.007656 9.005742-13.808803q29.899062-46.109397 58.717435-90.297568l13.328497-20.533091z" fill="#393D33" p-id="1124"></path><path d="M84.894205 708.99261a632.68336 632.68336 0 0 0 866.712563 0l59.317817 90.777875a696.44401 696.44401 0 0 1-984.627738 0z" fill="#A7C387" p-id="1125"></path></svg>