<?xml version="1.0" standalone="no"?><!DOCTYPE svg PUBLIC "-//W3C//DTD SVG 1.1//EN" "http://www.w3.org/Graphics/SVG/1.1/DTD/svg11.dtd"><svg t="1731659628094" class="icon" viewBox="0 0 1024 1024" version="1.1" xmlns="http://www.w3.org/2000/svg" p-id="975" xmlns:xlink="http://www.w3.org/1999/xlink" width="200" height="200"><path d="M407.0152096 219.86617813l190.39429547 109.74734934 13.68403413 8.1671936c5.40877333 2.8664864 10.16914987 4.00282027 14.3881024 4.00282026 14.54965653 0 21.7442528-13.35983467 21.7442528-13.35983466l42.40565973-63.12164587 0.32419947 234.26048853-0.10806613 0 0 21.90580694c0.0545792 1.2444 0.16264533 2.4342208 0.32419946 3.56946346 0.4322656 4.43508587 1.78473173 7.788416 3.6775296 10.38528214l0.32419947 0.32419946c0.27071147 0.3787776 0.59491093 0.8110432 0.8656224 1.13633387 5.13806187 6.1117504 12.65685867 6.81472747 16.0101888 6.81472747 0.8110432 0 1.35246613 0 1.6231776-0.0545792l81.2964352 0 0.10806613 0c-1.51402027 0.97368853-3.02913173 2.000864-4.543152 2.97455253L587.13228907 663.34414933l-10.33070294 5.787552c-22.06845227 11.68317013-11.03368 34.56266453-11.03368 34.56266454l1.02717547 2.0554432c0.10806613 0.16264533 0.10806613 0.32419947 0.10806613 0.3787776l2.9210656 5.84213013 26.341984 54.52218667L400.14590293 651.60640107l-15.1991456-9.8984384c-4.81386347-2.8664864-9.35701547-3.89475413-13.52248-3.89475414-1.40595413 0-2.75842027 0.10806613-4.00282026 0.32419947-7.08543893 0.75755627-12.38614613 4.65121813-15.1991456 7.3561504-1.13633387 1.02717547-1.78473173 1.73124373-1.78473174 1.73124373l-0.48684373 0.75755627c-0.0545792 0-0.10806613 0.16264533-0.10806613 0.16264533l-43.5419936 68.36886614c0 0-0.0545792-165.0805792-0.0545792-228.20222507l0.0545792 0 0-24.88145067c0-0.21613227-0.0545792-0.4322656-0.0545792-0.70297706l0-0.32419947c0-0.3787776-0.16264533-0.59491093-0.16264534-0.97368853-0.10806613-0.91910933-0.16264533-1.73124373-0.32419946-2.59577494-0.97368853-6.5451072-4.1108864-10.60141547-7.8429952-12.92757013-5.84213013-4.27353173-12.81950293-4.38159787-13.68403414-4.38159787l-0.10806613 0-79.88938987 0.0545792 203.7541312-114.5612128 0 0.16264534 25.58442774-14.17087787c8.6005504-5.13806187 11.25090453-11.62968213 11.5205248-17.2545888l0-0.32419947c0-0.8656224 0-1.6766656-0.0545792-2.4877088 0-0.21613227 0-0.4322656-0.10806614-0.64948906-0.64948907-5.3007072-2.8664864-9.24894827-2.8664864-9.24894827L407.0152096 219.86617813 407.0152096 219.86617813zM336.42825493 147.98242773l46.89532374 84.9739648 32.50722133 58.84920534-21.20282987 11.79123626-203.7541312 114.5612128-90.22118506 50.73549867 103.5264416-0.10806613 74.91397333-0.0545792 0 19.7422976 0 228.20222506 0 92.76347307 49.81638933-78.26730347 42.02688214-66.04271146 14.22545706 9.30352746L582.2638464 789.96621867l76.69870507 45.00252586-38.67355094-80.0520352-26.341984-54.52218666-0.21613226-0.4322656 0-1.83931094-3.08261867-4.76037546-0.27071147-0.8110432 9.73579307-5.46335254L802.8937888 570.14841173l3.7321088-2.37964266 80.59236693-50.03252267-93.30380373-1.02717547-77.02290347 0-0.0545792-6.81472746 0-10.33070294-0.32419946-234.26048853-0.10806614-88.48994133-49.38303253 73.45344106-42.40565973 63.12164587-13.52248-6.92388587L420.37504427 196.49983787 336.42825493 147.98242773 336.42825493 147.98242773z" p-id="976"></path><path d="M511.89411733 1006.9721184c-272.98861867 0-495.07800213-222.03589547-495.07800213-495.07800213 0-272.98861867 222.09047467-495.07800213 495.07800213-495.07800214S1006.9721184 238.9054976 1006.9721184 511.89411733 784.882736 1006.9721184 511.89411733 1006.9721184zM511.89411733 43.859984c-258.05909333 0-468.03413227 209.97394773-468.03413226 468.03413227S253.835024 979.9282496 511.89411733 979.9282496 979.9282496 769.9532096 979.9282496 511.89411733 769.9532096 43.859984 511.89411733 43.859984z" p-id="977"></path></svg>