<?xml version="1.0" standalone="no"?><!DOCTYPE svg PUBLIC "-//W3C//DTD SVG 1.1//EN" "http://www.w3.org/Graphics/SVG/1.1/DTD/svg11.dtd"><svg height="1028" node-id="1" sillyvg="true" template-height="1028" template-width="1028" version="1.1" viewBox="0 0 1028 1028" width="1028" xmlns="http://www.w3.org/2000/svg" xmlns:xlink="http://www.w3.org/1999/xlink"><defs node-id="15"><radialGradient cx="0.36346874" cy="0.41582108" fx="0.36346874" fy="0.41582108" gradientUnits="objectBoundingBox" id="radialGradient-1" node-id="5" r="0.64663446" rev="1" spreadMethod="pad"><stop offset="0" stop-color="#81d76b"></stop><stop offset="1" stop-color="#2bb186"></stop></radialGradient></defs><g node-id="22"><path d="M 720.20 194.50 L 730.00 194.80 L 739.60 195.40 L 749.00 196.50 L 758.30 198.00 L 767.40 200.00 L 776.50 202.30 L 785.40 205.00 L 794.00 208.10 L 802.50 211.60 L 810.80 215.40 L 820.90 220.80 L 830.60 226.60 L 840.00 232.90 L 849.00 239.80 L 857.70 247.10 L 865.80 254.80 L 873.60 263.00 L 880.90 271.70 L 887.80 280.70 L 894.10 290.00 L 899.90 299.80 L 905.20 309.90 L 909.10 318.20 L 912.50 326.60 L 915.60 335.30 L 918.40 344.20 L 920.70 353.20 L 922.60 362.40 L 924.20 371.60 L 925.30 381.10 L 925.90 390.70 L 926.20 400.50 L 925.90 410.20 L 925.30 419.90 L 924.20 429.30 L 922.60 438.60 L 920.70 447.70 L 918.30 456.80 L 915.60 465.70 L 912.50 474.40 L 909.00 482.90 L 905.10 491.30 L 899.70 501.40 L 893.80 511.20 L 887.50 520.70 L 880.50 529.70 L 873.10 538.40 L 865.30 546.60 L 857.00 554.40 L 848.30 561.80 L 839.10 568.70 L 829.60 575.00 L 819.80 580.80 L 809.50 586.10 L 801.10 590.00 L 792.50 593.40 L 783.60 596.50 L 774.60 599.20 L 765.30 601.50 L 764.30 612.70 L 762.80 623.70 L 760.80 634.50 L 758.40 645.10 L 755.50 655.50 L 752.20 665.90 L 748.40 676.00 L 744.30 685.90 L 739.80 695.50 L 734.80 704.90 L 729.50 714.20 L 723.80 723.10 L 717.70 731.80 L 711.30 740.20 L 704.50 748.30 L 697.40 756.20 L 690.00 763.70 L 682.30 770.90 L 674.30 777.80 L 666.00 784.40 L 657.40 790.60 L 648.60 796.40 L 639.50 801.90 L 630.20 807.00 L 620.60 811.80 L 610.80 816.10 L 600.80 820.00 L 590.60 823.50 L 580.20 826.50 L 569.60 829.20 L 558.90 831.30 L 548.00 833.00 L 536.90 834.20 L 525.70 835.00 L 514.30 835.30 L 502.80 835.00 L 491.60 834.20 L 480.50 833.00 L 469.60 831.30 L 459.00 829.20 L 448.30 826.50 L 437.90 823.50 L 427.70 820.00 L 417.70 816.10 L 407.90 811.80 L 398.30 807.00 L 389.00 801.90 L 379.90 796.40 L 371.10 790.60 L 362.50 784.40 L 354.20 777.80 L 346.20 770.90 L 338.50 763.70 L 331.10 756.20 L 324.00 748.30 L 317.20 740.20 L 310.80 731.80 L 304.80 723.10 L 299.10 714.20 L 293.70 704.90 L 288.80 695.50 L 284.20 685.90 L 280.10 676.00 L 276.30 665.90 L 273.00 655.50 L 270.10 645.10 L 267.70 634.50 L 265.70 623.70 L 264.20 612.70 L 263.20 601.50 L 253.90 599.20 L 244.90 596.50 L 236.10 593.40 L 227.40 590.00 L 219.00 586.10 L 208.70 580.80 L 198.90 575.00 L 189.40 568.70 L 180.20 561.80 L 171.50 554.40 L 163.20 546.60 L 155.40 538.40 L 148.00 529.70 L 141.10 520.70 L 134.70 511.20 L 128.80 501.40 L 123.40 491.30 L 119.60 482.90 L 116.10 474.40 L 112.90 465.70 L 110.20 456.80 L 107.80 447.70 L 105.90 438.60 L 104.40 429.30 L 103.30 419.90 L 102.60 410.20 L 102.40 400.50 L 102.60 390.70 L 103.30 381.10 L 104.40 371.60 L 105.90 362.40 L 107.80 353.20 L 110.10 344.20 L 112.90 335.30 L 116.00 326.60 L 119.40 318.20 L 123.30 309.90 L 128.60 299.80 L 134.40 290.00 L 140.80 280.70 L 147.60 271.70 L 154.90 263.00 L 162.70 254.80 L 170.90 247.10 L 179.50 239.80 L 188.50 232.90 L 197.90 226.60 L 207.60 220.80 L 217.70 215.40 L 226.00 211.60 L 234.50 208.10 L 243.10 205.00 L 252.00 202.30 L 261.10 200.00 L 270.20 198.00 L 279.50 196.50 L 288.90 195.40 L 298.50 194.80 L 308.30 194.50 L 314.40 195.30 L 319.90 197.60 L 322.30 199.30 L 326.40 203.40 L 329.40 208.50 L 331.00 214.20 L 331.20 217.40 L 331.00 220.60 L 329.40 226.30 L 326.40 231.40 L 322.30 235.50 L 317.20 238.50 L 311.50 240.00 L 299.20 240.50 L 290.40 241.30 L 281.70 242.50 L 273.20 244.10 L 264.90 246.20 L 256.60 248.80 L 248.60 251.80 L 240.90 255.10 L 233.30 258.90 L 226.00 263.00 L 218.90 267.50 L 212.10 272.40 L 205.50 277.60 L 199.30 283.10 L 193.30 289.00 L 187.60 295.20 L 182.30 301.60 L 177.30 308.30 L 172.60 315.30 L 168.30 322.50 L 176.90 316.90 L 185.70 311.80 L 194.80 307.00 L 204.10 302.70 L 213.70 298.90 L 223.40 295.60 L 233.30 292.70 L 243.50 290.30 L 253.70 288.50 L 264.10 287.10 L 274.70 286.30 L 285.40 286.00 L 291.60 286.90 L 297.00 289.20 L 301.60 292.70 L 305.20 297.40 L 307.50 302.80 L 308.30 308.90 L 308.10 312.10 L 306.50 317.80 L 303.50 322.90 L 299.40 327.00 L 297.00 328.70 L 291.60 331.00 L 288.60 331.60 L 268.50 332.70 L 260.20 333.80 L 252.10 335.30 L 244.10 337.20 L 236.20 339.50 L 228.50 342.20 L 220.90 345.30 L 213.60 348.80 L 206.40 352.60 L 199.40 356.80 L 192.70 361.30 L 186.20 366.20 L 180.00 371.40 L 173.90 376.90 L 168.20 382.80 L 162.80 388.90 L 157.70 395.30 L 152.90 402.00 L 148.30 409.10 L 149.20 418.90 L 150.60 428.50 L 152.50 437.90 L 155.10 447.20 L 158.10 456.20 L 161.70 465.00 L 168.70 456.40 L 176.10 448.20 L 183.90 440.40 L 192.10 433.00 L 200.70 426.10 L 209.60 419.70 L 218.90 413.80 L 228.50 408.30 L 238.40 403.40 L 248.50 399.00 L 258.90 395.10 L 269.60 391.70 L 275.80 390.90 L 281.60 391.60 L 287.00 393.80 L 291.70 397.30 L 295.40 401.90 L 297.90 407.60 L 298.50 410.70 L 298.60 416.60 L 297.10 422.30 L 294.20 427.40 L 292.30 429.70 L 287.70 433.30 L 285.00 434.70 L 272.40 438.90 L 263.00 442.50 L 253.90 446.70 L 245.10 451.40 L 236.60 456.70 L 228.50 462.50 L 220.80 468.70 L 213.40 475.50 L 206.50 482.70 L 200.00 490.30 L 194.00 498.30 L 188.50 506.80 L 195.30 514.00 L 202.60 520.80 L 210.30 527.20 L 218.40 533.10 L 226.90 538.50 L 235.70 543.30 L 249.60 549.60 L 264.20 554.50 L 265.70 543.80 L 267.60 533.20 L 269.90 522.90 L 272.60 512.70 L 275.80 502.70 L 279.40 492.80 L 283.30 483.20 L 287.70 473.70 L 292.40 464.50 L 297.50 455.50 L 302.90 446.70 L 308.70 438.20 L 314.80 430.00 L 321.20 422.00 L 328.00 414.20 L 335.00 406.80 L 342.40 399.60 L 350.00 392.80 L 357.90 386.20 L 366.10 380.00 L 374.60 374.10 L 383.20 368.60 L 392.10 363.40 L 401.30 358.50 L 410.70 354.00 L 420.20 349.90 L 430.00 346.30 L 439.90 343.00 L 450.10 340.10 L 460.50 337.60 L 470.90 335.50 L 481.50 333.90 L 492.20 332.80 L 503.10 332.10 L 514.30 331.80 L 525.40 332.10 L 536.30 332.80 L 547.00 333.90 L 557.60 335.50 L 568.00 337.60 L 578.40 340.10 L 588.60 343.00 L 598.50 346.30 L 608.30 349.90 L 617.80 354.00 L 627.20 358.50 L 636.40 363.40 L 645.30 368.60 L 654.00 374.10 L 662.40 380.00 L 670.60 386.20 L 678.50 392.80 L 686.10 399.60 L 693.50 406.80 L 700.50 414.20 L 707.30 422.00 L 713.70 430.00 L 719.80 438.20 L 725.60 446.70 L 731.10 455.50 L 736.10 464.50 L 740.80 473.70 L 745.20 483.20 L 749.10 492.80 L 752.70 502.70 L 755.90 512.70 L 758.60 522.90 L 760.90 533.20 L 762.80 543.80 L 764.30 554.50 L 771.70 552.20 L 785.90 546.60 L 792.80 543.30 L 801.60 538.50 L 810.10 533.10 L 818.20 527.20 L 825.90 520.80 L 833.20 514.00 L 840.00 506.80 L 834.50 498.30 L 828.50 490.30 L 822.00 482.70 L 815.10 475.50 L 807.70 468.70 L 800.00 462.50 L 791.90 456.70 L 783.40 451.40 L 774.60 446.70 L 765.50 442.50 L 756.10 438.90 L 743.50 434.70 L 740.80 433.30 L 736.20 429.70 L 734.30 427.40 L 731.40 422.30 L 729.90 416.60 L 729.80 413.70 L 730.00 410.70 L 730.60 407.60 L 731.70 404.60 L 734.80 399.50 L 739.00 395.40 L 744.10 392.60 L 749.80 391.10 L 752.70 390.90 L 755.80 391.10 L 758.90 391.70 L 769.60 395.10 L 780.00 399.00 L 790.10 403.40 L 800.00 408.30 L 809.60 413.80 L 818.90 419.70 L 827.80 426.10 L 836.40 433.00 L 844.70 440.40 L 852.50 448.20 L 859.80 456.40 L 866.80 465.00 L 870.40 456.20 L 873.40 447.20 L 876.00 438.00 L 877.90 428.50 L 879.30 418.90 L 880.20 409.10 L 875.60 402.00 L 870.80 395.30 L 865.70 388.90 L 860.30 382.80 L 854.60 377.00 L 848.60 371.40 L 842.30 366.20 L 835.80 361.30 L 829.10 356.80 L 822.10 352.60 L 814.90 348.80 L 807.60 345.30 L 800.00 342.20 L 792.30 339.50 L 784.40 337.20 L 776.40 335.30 L 768.30 333.80 L 760.00 332.70 L 739.90 331.60 L 737.00 331.00 L 731.50 328.70 L 729.10 327.00 L 725.00 322.90 L 722.00 317.80 L 720.40 312.10 L 720.20 308.90 L 720.40 305.80 L 722.00 300.00 L 725.00 294.90 L 729.10 290.80 L 731.50 289.20 L 737.00 286.90 L 743.10 286.00 L 753.80 286.30 L 764.40 287.10 L 774.80 288.50 L 785.00 290.30 L 795.20 292.70 L 805.10 295.60 L 814.90 298.90 L 824.40 302.70 L 833.70 307.00 L 842.80 311.80 L 851.60 316.90 L 860.20 322.60 L 855.90 315.30 L 851.20 308.30 L 846.30 301.60 L 840.90 295.20 L 835.20 289.00 L 829.30 283.10 L 823.00 277.60 L 816.50 272.40 L 809.60 267.50 L 802.50 263.00 L 795.20 258.90 L 787.60 255.10 L 779.90 251.80 L 771.90 248.80 L 763.60 246.20 L 755.30 244.10 L 746.80 242.50 L 738.10 241.30 L 729.30 240.50 L 717.00 240.00 L 714.10 239.40 L 708.70 237.20 L 704.00 233.60 L 700.40 228.90 L 699.10 226.30 L 697.60 220.60 L 697.30 217.40 L 697.60 214.20 L 699.10 208.50 L 702.10 203.40 L 706.20 199.30 L 708.70 197.60 L 714.10 195.30 L 720.20 194.50 Z" fill="url(#radialGradient-1)" fill-rule="nonzero" group-id="1" id="合并形状" node-id="10" stroke="none" target-height="640.8" target-width="823.8" target-x="102.4" target-y="194.5"></path><path d="M 362.40 412.30 L 358.60 415.80" fill="none" group-id="1" id="椭圆形-copy-12" node-id="11" stroke="#ffffff" stroke-linecap="round" stroke-width="11.44177" target-height="3.5" target-width="3.7999878" target-x="358.6" target-y="412.3"></path><g node-id="23"><path d="M 582.90 697.90 L 582.70 701.70 L 582.00 705.40 L 580.90 708.90 L 579.40 712.40 L 577.50 715.70 L 572.70 722.00 L 569.70 725.00 L 565.30 728.60 L 560.40 731.90 L 554.80 734.90 L 549.00 737.40 L 542.70 739.60 L 536.00 741.40 L 529.10 742.70 L 521.80 743.40 L 514.30 743.70 L 506.70 743.40 L 499.40 742.70 L 492.60 741.40 L 485.80 739.60 L 479.50 737.40 L 473.70 734.90 L 468.10 731.90 L 463.20 728.60 L 458.90 725.00 L 453.20 718.90 L 449.10 712.40 L 447.60 708.90 L 446.50 705.40 L 445.80 701.70 L 445.60 697.90 L 445.80 694.20 L 446.50 690.50 L 447.60 687.00 L 449.10 683.50 L 453.20 677.00 L 455.80 673.90 L 458.90 670.90 L 463.20 667.30 L 468.10 664.00 L 473.70 661.00 L 479.50 658.50 L 485.80 656.30 L 492.60 654.50 L 499.40 653.20 L 506.70 652.50 L 514.30 652.20 L 521.80 652.50 L 529.10 653.20 L 536.00 654.50 L 542.70 656.30 L 549.00 658.50 L 554.80 661.00 L 560.40 664.00 L 565.30 667.30 L 569.70 670.90 L 572.70 673.90 L 577.50 680.20 L 580.90 687.00 L 582.00 690.50 L 582.70 694.20 L 582.90 697.90 Z" fill="#ffffff" fill-opacity="0.2" fill-rule="nonzero" group-id="1,2" id="椭圆形" node-id="12" stroke="none" target-height="91.5" target-width="137.30002" target-x="445.6" target-y="652.2"></path></g><path d="M 446.40 364.90 L 430.90 370.40 L 413.50 378.00 L 403.90 383.00 L 394.70 388.40 L 385.70 394.20 L 377.00 400.40" fill="none" group-id="1" id="椭圆形" node-id="13" stroke="#ffffff" stroke-linecap="round" stroke-width="11.44177" target-height="35.5" target-width="69.399994" target-x="377" target-y="364.9"></path></g></svg>