<?xml version="1.0" standalone="no"?><!DOCTYPE svg PUBLIC "-//W3C//DTD SVG 1.1//EN" "http://www.w3.org/Graphics/SVG/1.1/DTD/svg11.dtd"><svg t="1731746102698" class="icon" viewBox="0 0 1024 1024" version="1.1" xmlns="http://www.w3.org/2000/svg" p-id="1415" xmlns:xlink="http://www.w3.org/1999/xlink" width="200" height="200"><path d="M410.624 370.688c-28.16 0-50.688-22.528-51.2-50.688 0-0.512-3.072-73.216-46.08-83.968-90.112-23.04-128-100.352-135.68-142.336-5.12-27.648 12.8-54.784 40.96-59.904 27.648-5.12 54.272 12.8 59.904 40.448 1.024 5.632 12.8 50.176 60.416 62.464 95.232 24.576 121.856 125.952 122.88 181.76 0.512 28.16-22.016 51.712-50.688 52.224h-0.512z m203.776 0c28.16 0 50.688-22.528 51.2-50.688 0-0.512 3.072-73.216 46.08-83.968 90.112-23.04 128-100.352 135.68-142.336 5.12-27.648-12.8-54.784-40.96-59.904-27.648-5.12-54.272 12.8-59.904 40.448-1.024 5.632-12.8 50.176-60.416 62.464-95.232 24.576-122.368 125.44-123.392 181.76-0.512 28.16 22.016 51.712 50.688 52.224h1.024z" fill="#FCD684" p-id="1416"></path><path d="M284.16 261.12c70.144 52.224 54.272 123.904 5.12 189.952S175.616 552.96 105.472 500.736c-44.032-33.28-80.896-134.144-88.576-194.56-4.096-30.208 25.088-69.632 55.808-74.24 59.904-10.24 167.424-3.584 211.456 29.184z" fill="#F55569" p-id="1417"></path><path d="M286.208 339.968c41.472 30.72 31.744 72.704 3.072 111.616s-66.56 59.904-108.032 28.672c-26.112-19.456-47.616-78.848-52.224-114.176-2.048-17.92 14.848-40.96 32.768-43.52 35.328-6.144 98.304-2.048 124.416 17.408z" fill="#FCD684" p-id="1418"></path><path d="M740.864 261.12c-70.144 52.224-54.272 123.904-5.12 189.952s113.664 101.376 183.808 49.152c44.032-32.768 80.896-134.144 88.576-194.56 4.096-30.208-25.088-69.632-55.808-74.24-59.904-9.728-167.424-3.072-211.456 29.696z" fill="#F55569" p-id="1419"></path><path d="M738.816 339.968c-41.472 30.72-31.744 72.704-3.072 111.616 29.184 38.912 66.56 59.904 108.032 28.672C869.888 460.8 891.392 401.408 896 366.08c2.048-17.92-14.848-40.96-32.768-43.52-35.328-6.144-98.304-2.048-124.416 17.408z" fill="#FCD684" p-id="1420"></path><path d="M834.56 529.408c0 195.072-143.36 460.8-320.512 460.8s-320.512-266.24-320.512-460.8S336.896 284.16 514.048 284.16 834.56 334.336 834.56 529.408z" fill="#F55569" p-id="1421"></path><path d="M403.968 720.896a116.224 116.224 0 1 0 232.448 0 116.224 116.224 0 1 0-232.448 0z" fill="#FCD684" p-id="1422"></path></svg>