<?xml version="1.0" standalone="no"?><!DOCTYPE svg PUBLIC "-//W3C//DTD SVG 1.1//EN" "http://www.w3.org/Graphics/SVG/1.1/DTD/svg11.dtd"><svg t="1732364434999" class="icon" viewBox="0 0 1024 1024" version="1.1" xmlns="http://www.w3.org/2000/svg" p-id="5444" xmlns:xlink="http://www.w3.org/1999/xlink" width="200" height="200"><path d="M994.52 574.46l-142.48-247.44a10.046 10.046 0 0 0-8.68-5.02H731.4 180.64c-3.58 0-6.88 1.92-8.68 5.02L29.06 575.18c-1.78 3.1-1.78 6.9 0.02 10a9.986 9.986 0 0 0 8.64 4.98h132.92v388.36c0 5.54 4.48 10 10 10h662.72c5.52 0 10-4.46 10-10V590.16H986.32c5.52 0 10-4.46 10-10 0-2.12-0.66-4.08-1.8-5.7z m-73.46-87.48h-108.7l-27.58-61.28h101l35.28 61.28z m-121.62 20l28.46 63.18h-140.74l-16.04-63.18h128.32z m-133.4-20l-15.56-61.28h112.36l27.6 61.28h-124.4zM837.58 342l36.68 63.7h-98.48L747.08 342h90.5z m-112.42 0l28.68 63.7H645.4L629.22 342h95.94zM522 342h86.58l16.18 63.7H522V342z m0 83.7h107.84l15.56 61.28H522v-61.28z m0 81.28h128.48l16.06 63.18H522v-63.18zM415.42 342H502v63.7h-102.76l16.18-63.7z m-181.86 144.98l27.6-61.28h112.36l-15.56 61.28h-124.4z m119.32 20l-16.06 63.18H196.1l28.46-63.18h128.32z m20.64 0H502v63.18h-144.54l16.06-63.18z m5.08-20l15.56-61.28H502v61.28h-123.4z m16.18-144.98l-16.18 63.7h-108.44L298.84 342h95.94z m-208.36 0h90.5l-28.7 63.7H149.74L186.42 342z m-48.2 83.7h101l-27.58 61.28H102.94l35.28-61.28z m35.96 144.46H55.02l36.4-63.18h111.2l-28.44 63.18z m16.46 165.14v-54.72h54.74v54.72H190.64z m54.74 20v54.74H190.64v-54.74h54.74z m335.94 213.22h-138.64v-179.18h138.64v179.18z m252.04-158.48h-54.74v-54.74h54.74v54.74z m0-74.74h-54.74v-54.72h54.74v54.72z m0-74.72h-139.46c-5.54 0-10 4.46-10 10v149.46c0 5.54 4.46 10 10 10h139.46v138.48H601.32v-189.18c0-5.52-4.48-10-10-10h-158.64c-5.52 0-10 4.48-10 10v189.18H190.64v-138.48h139.48c5.52 0 10-4.46 10-10v-149.46c0-5.54-4.48-10-10-10H190.64v-70.42h642.72v70.42z m-129.46 74.72v-54.72h54.72v54.72h-54.72z m54.72 20v54.74h-54.72v-54.74h54.72z m-438.5 0v54.74h-54.74v-54.74h54.74z m-54.74-20v-54.72h54.74v54.72h-54.74z m584.46-165.14l-28.46-63.18h111.2l36.4 63.18h-119.14z" fill="#23130D" p-id="5445"></path><path d="M968.98 570.16h-119.14l-28.46-63.18h111.2zM921.06 486.98h-108.7l-27.58-61.28h101zM874.26 405.7h-98.48L747.08 342h90.5zM753.84 405.7H645.4L629.22 342h95.94zM827.9 570.16h-140.74l-16.04-63.18h128.32zM790.44 486.98h-124.4l-15.56-61.28h112.36zM645.4 486.98H522v-61.28h107.84zM666.54 570.16H522v-63.18h128.48zM624.76 405.7H522V342h86.58zM502 342v63.7h-102.76l9.74-38.32 3.9-15.38 1.52-6 1.02-4zM502 425.7v61.28h-123.4l13.6-53.58 1.96-7.7zM502 506.98v63.18h-144.54l16.06-63.18zM352.88 506.98l-6.96 27.42-5 19.66-3.14 12.3-0.96 3.8H196.1l28.46-63.18zM373.52 425.7l-9.24 36.4-5 19.64-1.32 5.24h-124.4l22.96-50.96 4.64-10.32zM394.78 342l-8.74 34.36-4.98 19.66-2.46 9.68h-108.44l19.72-43.82 6-13.28 2.32-5.18 0.64-1.42zM276.92 342l-11.12 24.7-7.66 16.98-4.8 10.64-4.6 10.24-0.52 1.14H149.74l26.8-46.56 7.06-12.24 2.74-4.74 0.08-0.16zM239.22 425.7l-10.22 22.74-7.66 16.98-4.78 10.66-4.62 10.22-0.3 0.68H102.94l30.3-52.62 4.98-8.66zM202.62 506.98l-10.42 23.18-7.66 16.98-4.8 10.66-4.6 10.22-0.96 2.14H55.02l34.9-60.58 1.5-2.6z" fill="#3594BF" p-id="5446"></path><path d="M265.38 680.58h54.74v54.72h-54.74zM190.64 680.58h54.74v54.72H190.64zM190.64 755.3h54.74v54.74H190.64zM265.38 755.3h54.74v54.74h-54.74zM703.9 680.58h54.72v54.72h-54.72zM778.62 680.58h54.74v54.72h-54.74zM778.62 755.3h54.74v54.74h-54.74zM703.9 755.3h54.72v54.74h-54.72z" fill="#8FDCFF" p-id="5447"></path><path d="M442.68 789.34h138.64v179.18h-138.64z" fill="#CC7B5A" p-id="5448"></path><path d="M683.9 670.58v149.46c0 5.54 4.46 10 10 10h139.46v138.48H601.32v-189.18c0-5.52-4.48-10-10-10h-158.64c-5.52 0-10 4.48-10 10v189.18H190.64v-138.48h139.48c5.52 0 10-4.46 10-10v-149.46c0-5.54-4.48-10-10-10H190.64v-70.42h642.72v70.42h-139.46c-5.54 0-10 4.46-10 10z" fill="#F8D3C9" p-id="5449"></path><path d="M819.36 604.16v42.42h-125.46c-13.234 0-24 10.766-24 24v149.46c0 13.234 10.766 24 24 24h125.46v110.48H615.32v-175.18c0-13.234-10.766-24-24-24h-158.64c-13.234 0-24 10.766-24 24v175.18H204.64v-110.48h125.48c13.234 0 24-10.766 24-24v-149.46c0-13.234-10.766-24-24-24h-125.48v-42.42h614.72m14-14H190.64v70.42h139.48c5.52 0 10 4.46 10 10v149.46c0 5.54-4.48 10-10 10H190.64v138.48h232.04v-189.18c0-5.52 4.48-10 10-10h158.64c5.52 0 10 4.48 10 10v189.18h232.04v-138.48h-139.46c-5.54 0-10-4.46-10-10v-149.46c0-5.54 4.46-10 10-10h139.46v-70.42z" opacity=".2" p-id="5450"></path><path d="M666.96 35.46H357.04c-5.52 0-10 4.48-10 10 0 90.98 74 164.98 164.96 164.98s164.96-74 164.96-164.98c0-5.52-4.46-10-10-10zM512 190.44c-76.58 0-139.48-59.68-144.62-134.98h289.24c-5.14 75.3-68.04 134.98-144.62 134.98z" fill="#23130D" p-id="5451"></path><path d="M656.62 55.46c-5.14 75.3-68.04 134.98-144.62 134.98s-139.48-59.68-144.62-134.98h289.24z" fill="#F9C139" p-id="5452"></path><path d="M531.94 189.06c-6.52 0.92-13.18 1.38-19.94 1.38-76.58 0-139.48-59.68-144.62-134.98h39.88c4.68 68.64 57.38 124.32 124.68 133.6z" opacity=".2" p-id="5453"></path><path d="M656.62 55.46c-5.14 75.3-68.04 134.98-144.62 134.98-6.76 0-13.42-0.46-19.94-1.38 67.3-9.28 120-64.96 124.68-133.6h39.88z" fill="#FFFFFF" opacity=".4" p-id="5454"></path><path d="M285.932 55.47h33.136a10 10 0 0 0 0-20h-33.136a10 10 0 0 0 0 20zM296.146 113.394a10.002 10.002 0 1 0 6.84 18.794l31.138-11.334a9.996 9.996 0 0 0 5.976-12.816 9.996 9.996 0 0 0-12.816-5.976l-31.138 11.332zM357.78 161.824l-25.384 21.3a10 10 0 1 0 12.856 15.32l25.384-21.3a10 10 0 1 0-12.856-15.32zM406.872 207.552l-16.566 28.702a10 10 0 1 0 17.322 9.998l16.566-28.702a10 10 0 1 0-17.322-9.998zM468.646 233.734l-5.752 32.634a10 10 0 0 0 19.698 3.472l5.752-32.634a10 10 0 0 0-19.698-3.472zM543.76 225.626a10 10 0 0 0-8.11 11.584l5.758 32.63a10 10 0 0 0 19.696-3.474l-5.758-32.63a9.996 9.996 0 0 0-11.586-8.11zM603.462 203.894a10 10 0 0 0-3.66 13.662l16.572 28.698a9.996 9.996 0 0 0 13.66 3.658 10 10 0 0 0 3.66-13.662l-16.572-28.698a10 10 0 0 0-13.66-3.658zM652.132 163.058a10 10 0 0 0 1.232 14.088l25.384 21.3a9.96 9.96 0 0 0 6.422 2.34 10 10 0 0 0 6.434-17.66l-25.384-21.3a10 10 0 0 0-14.088 1.232zM689.874 120.858l31.142 11.332a10 10 0 0 0 12.816-5.978 10 10 0 0 0-5.976-12.816l-31.142-11.332a10.004 10.004 0 0 0-12.816 5.978 9.996 9.996 0 0 0 5.976 12.816zM704.932 55.474l33.134-0.002a10 10 0 1 0 0-20l-33.134 0.002a10 10 0 1 0 0 20z" fill="#23130D" p-id="5455"></path><path d="M460.916 802.838h42.186v42.186h-42.186zM520.898 802.838h42.186v42.186h-42.186zM460.916 857.838h42.186v42.186h-42.186zM520.898 857.838h42.186v42.186h-42.186z" fill="#E59D89" p-id="5456"></path><path d="M460.916 912.838h42.186v42.186h-42.186zM520.898 912.838h42.186v42.186h-42.186z" fill="#E59D89" p-id="5457"></path><path d="M211.12 735.3H190.64v-20.48zM231.12 755.3l14.26 14.26v30.42l-44.68-44.68zM285.86 810.04h-20.48v-20.48zM191.58 680.58l53.8 53.8v0.92h-22.44L190.64 703v-22.42zM242.94 755.3h2.44v2.44zM320.12 809.12v0.92h-22.44l-32.3-32.3v-22.44h0.92zM215.94 680.58h29.44v29.44zM309.5 735.3h-38.84l-5.28-5.28v-38.84zM320.12 755.3v29.46l-29.46-29.46z" fill="#FFFFFF" opacity=".4" p-id="5458"></path><path d="M724.38 735.3h-20.48v-20.48zM744.38 755.3l14.26 14.26v30.42l-44.68-44.68zM799.12 810.04h-20.48v-20.48zM704.84 680.58l53.8 53.8v0.92H736.2l-32.3-32.3v-22.42zM756.2 755.3h2.44v2.44zM833.38 809.12v0.92h-22.44l-32.3-32.3v-22.44h0.92zM729.2 680.58h29.44v29.44zM822.76 735.3h-38.84l-5.28-5.28v-38.84zM833.38 755.3v29.46l-29.46-29.46z" fill="#FFFFFF" opacity=".4" p-id="5459"></path><path d="M466.58 405.7h-19.28l-38.32-38.32 3.9-15.38zM488.92 405.7h-14.84L414.4 346l1.02-4h9.78zM502 378.7v24.64L440.66 342h24.64z" fill="#FFFFFF" opacity=".4" p-id="5460"></path><path d="M465.06 486.98h-19.28L392.2 433.4l1.96-7.7h9.62zM487.38 486.98h-14.82l-61.26-61.28h14.8zM502 461.5v24.64l-60.46-60.44h24.64z" fill="#FFFFFF" opacity=".4" p-id="5461"></path><path d="M465.44 570.16h-19.28l-63.18-63.18h19.28zM487.76 570.16h-14.82l-63.18-63.18h14.82zM502 544.32v24.64l-61.98-61.98h24.64z" fill="#FFFFFF" opacity=".4" p-id="5462"></path><path d="M242.4 405.7h-19.3l-46.56-46.56 7.06-12.24zM253.34 394.32l-4.6 10.24-62.4-62.4 0.08-0.16h14.58zM265.8 366.7l-7.66 16.98L216.46 342h24.64z" fill="#FFFFFF" opacity=".4" p-id="5463"></path><path d="M205.14 486.98h-19.28l-52.62-52.62 4.98-8.66h5.64zM216.56 476.08l-4.62 10.22-60.6-60.6h14.84zM229 448.44l-7.66 16.98-39.72-39.72h24.64z" fill="#FFFFFF" opacity=".4" p-id="5464"></path><path d="M169.8 570.16h-19.3l-60.58-60.58 1.5-2.6h15.18zM179.74 557.8l-4.6 10.22-61.04-61.04h14.82zM192.2 530.16l-7.66 16.98-40.16-40.16h24.64z" fill="#FFFFFF" opacity=".4" p-id="5465"></path><path d="M352.98 405.7h-19.28l-43.82-43.82 6-13.28zM375.3 405.7h-14.82l-62.28-62.28 0.64-1.42h12.76zM386.04 376.36l-4.98 19.66L327.04 342h24.64z" fill="#FFFFFF" opacity=".4" p-id="5466"></path><path d="M326.74 486.98h-19.28l-50.94-50.96 4.64-10.32h4.32zM349.06 486.98h-14.82l-61.28-61.28h14.84zM364.28 462.1l-5 19.64-56.04-56.04h24.64z" fill="#FFFFFF" opacity=".4" p-id="5467"></path><path d="M319.26 570.16h-19.28l-63.18-63.18h19.28zM337.78 566.36l-0.96 3.8h-10.06l-63.18-63.18h14.82zM345.92 534.4l-5 19.66-47.08-47.08h24.66z" fill="#FFFFFF" opacity=".4" p-id="5468"></path><path d="M557.42 405.7h19.28l38.32-38.32-3.9-15.38zM535.08 405.7h14.84L609.6 346l-1.02-4h-9.78zM522 378.7v24.64L583.34 342h-24.64z" fill="#FFFFFF" opacity=".4" p-id="5469"></path><path d="M558.94 486.98h19.28l53.58-53.58-1.96-7.7h-9.62zM536.62 486.98h14.82l61.26-61.28h-14.8zM522 461.5v24.64l60.46-60.44h-24.64z" fill="#FFFFFF" opacity=".4" p-id="5470"></path><path d="M558.56 570.16h19.28l63.18-63.18h-19.28zM536.24 570.16h14.82l63.18-63.18h-14.82zM522 544.32v24.64l61.98-61.98h-24.64z" fill="#FFFFFF" opacity=".4" p-id="5471"></path><path d="M781.6 405.7h19.3l46.56-46.56-7.06-12.24zM770.66 394.32l4.6 10.24 62.4-62.4-0.08-0.16h-14.58zM758.2 366.7l7.66 16.98L807.54 342h-24.64z" fill="#FFFFFF" opacity=".4" p-id="5472"></path><path d="M818.86 486.98h19.28l52.62-52.62-4.98-8.66h-5.64zM807.44 476.08l4.62 10.22 60.6-60.6h-14.84zM795 448.44l7.66 16.98 39.72-39.72h-24.64z" fill="#FFFFFF" opacity=".4" p-id="5473"></path><path d="M854.2 570.16h19.3l60.58-60.58-1.5-2.6h-15.18zM844.26 557.8l4.6 10.22 61.04-61.04h-14.82zM831.8 530.16l7.66 16.98 40.16-40.16h-24.64z" fill="#FFFFFF" opacity=".4" p-id="5474"></path><path d="M671.02 405.7h19.28l43.82-43.82-6-13.28zM648.7 405.7h14.82l62.28-62.28-0.64-1.42h-12.76zM637.96 376.36l4.98 19.66L696.96 342h-24.64z" fill="#FFFFFF" opacity=".4" p-id="5475"></path><path d="M697.26 486.98h19.28l50.94-50.96-4.64-10.32h-4.32zM674.94 486.98h14.82l61.28-61.28h-14.84zM659.72 462.1l5 19.64 56.04-56.04h-24.64z" fill="#FFFFFF" opacity=".4" p-id="5476"></path><path d="M704.74 570.16h19.28l63.18-63.18h-19.28zM686.22 566.36l0.96 3.8h10.06l63.18-63.18h-14.82zM678.08 534.4l5 19.66 47.08-47.08h-24.66z" fill="#FFFFFF" opacity=".4" p-id="5477"></path></svg>